<svg width="1431" height="550" viewBox="0 0 1431 550" fill="none" xmlns="http://www.w3.org/2000/svg">
<g clip-path="url(#clip0_50_1536)">
<g style="mix-blend-mode:screen" opacity="0.49">
<g opacity="0.91">
<path d="M844.201 202.924C844.386 202.503 843.736 202.216 843.551 202.636C843.366 203.057 844.016 203.345 844.201 202.924Z" fill="#BAC7FF"/>
</g>
<g opacity="0.12">
<path d="M828.334 215.815C828.607 215.335 827.861 214.914 827.587 215.394C827.314 215.874 828.06 216.294 828.334 215.815Z" fill="#BAC7FF"/>
</g>
<g opacity="0.19">
<path d="M812.969 227.731C813.294 227.304 812.629 226.802 812.304 227.23C811.979 227.658 812.644 228.159 812.969 227.731Z" fill="#BAC7FF"/>
</g>
<g opacity="0.15">
<path d="M790.689 230.314C790.866 229.842 790.128 229.569 789.95 230.041C789.773 230.513 790.512 230.786 790.689 230.314Z" fill="#BAC7FF"/>
</g>
<path d="M759.833 224.256C760.003 223.843 759.353 223.585 759.183 223.998C759.013 224.411 759.663 224.669 759.833 224.256Z" fill="#BAC7FF"/>
<g opacity="0.93">
<path d="M769.488 201.013C769.917 200.71 769.451 200.054 769.023 200.349C768.594 200.651 769.06 201.308 769.488 201.013Z" fill="#BAC7FF"/>
</g>
<g opacity="0.64">
<path d="M808.75 190.402C808.869 189.827 807.967 189.642 807.849 190.225C807.731 190.801 808.632 190.985 808.75 190.402Z" fill="#BAC7FF"/>
</g>
<g opacity="0.94">
<path d="M827.89 189.104C827.787 188.639 827.056 188.794 827.159 189.266C827.262 189.731 827.994 189.576 827.89 189.104Z" fill="#BAC7FF"/>
</g>
<path d="M813.478 142.049C813.995 141.946 813.833 141.141 813.316 141.252C812.799 141.355 812.961 142.16 813.478 142.049Z" fill="#BAC7FF"/>
<path d="M782.955 138.758C783.302 138.478 782.866 137.932 782.519 138.212C782.172 138.492 782.608 139.038 782.955 138.758Z" fill="#BAC7FF"/>
<g opacity="0.51">
<path d="M735.545 153.28C736.032 153.206 735.921 152.453 735.434 152.52C734.946 152.593 735.057 153.346 735.545 153.28Z" fill="#BAC7FF"/>
</g>
<g opacity="0.9">
<path d="M703.086 166.805C703.699 166.842 703.758 165.897 703.145 165.86C702.532 165.823 702.473 166.768 703.086 166.805Z" fill="#BAC7FF"/>
</g>
<g opacity="0.31">
<path d="M715.976 210.229C716.25 209.779 715.548 209.343 715.267 209.801C714.994 210.251 715.696 210.686 715.976 210.229Z" fill="#BAC7FF"/>
</g>
<g opacity="0.62">
<path d="M730.514 225.134C730.699 224.573 729.827 224.286 729.642 224.846C729.458 225.407 730.329 225.695 730.514 225.134Z" fill="#BAC7FF"/>
</g>
<path d="M746.034 243.522C746.249 243.094 745.576 242.755 745.362 243.19C745.148 243.618 745.82 243.957 746.034 243.522Z" fill="#BAC7FF"/>
<path d="M753.229 255.616C753.34 255.181 752.668 255.011 752.557 255.439C752.446 255.874 753.119 256.044 753.229 255.616Z" fill="#BAC7FF"/>
<path d="M733.092 256.037C733.306 255.564 732.575 255.24 732.361 255.704C732.147 256.177 732.878 256.501 733.092 256.037Z" fill="#BAC7FF"/>
<g opacity="0.53">
<path d="M707.703 237.162C708.028 236.734 707.363 236.224 707.031 236.652C706.706 237.08 707.37 237.589 707.703 237.162Z" fill="#BAC7FF"/>
</g>
<g opacity="0.58">
<path d="M695.093 224.116C695.396 223.747 694.82 223.275 694.517 223.644C694.214 224.013 694.79 224.485 695.093 224.116Z" fill="#BAC7FF"/>
</g>
<g opacity="0.64">
<path d="M706.994 202.894C707.407 202.43 706.691 201.795 706.277 202.253C705.863 202.717 706.58 203.352 706.994 202.894Z" fill="#BAC7FF"/>
</g>
<g opacity="0.38">
<path d="M743.826 189.008C744.934 189.281 745.362 187.569 744.254 187.288C743.146 187.015 742.718 188.727 743.826 189.008Z" fill="#BAC7FF"/>
</g>
<g opacity="0.41">
<path d="M738.633 183.082C739.874 183.097 739.903 181.164 738.655 181.149C737.414 181.134 737.384 183.068 738.633 183.082Z" fill="#BAC7FF"/>
</g>
<path d="M702.369 184.123C702.805 183.429 701.727 182.758 701.291 183.451C700.855 184.145 701.934 184.816 702.369 184.123Z" fill="#BAC7FF"/>
<g opacity="0.91">
<path d="M701.224 170.155C701.808 170 701.572 169.092 700.981 169.24C700.397 169.395 700.633 170.302 701.224 170.155Z" fill="#BAC7FF"/>
</g>
<path d="M705.317 132.951C705.598 132.589 705.036 132.154 704.755 132.516C704.475 132.877 705.036 133.313 705.317 132.951Z" fill="#BAC7FF"/>
<g opacity="0.43">
<path d="M728.475 168.362C729.17 168.044 728.675 166.967 727.98 167.284C727.286 167.602 727.781 168.679 728.475 168.362Z" fill="#BAC7FF"/>
</g>
<path d="M790.741 175.423C790.918 174.87 790.054 174.597 789.877 175.15C789.699 175.704 790.564 175.977 790.741 175.423Z" fill="#BAC7FF"/>
<path d="M798.66 157.293C799.155 157.441 799.384 156.666 798.889 156.519C798.394 156.371 798.157 157.146 798.66 157.293Z" fill="#BAC7FF"/>
<g opacity="0.95">
<path d="M799.701 175.364C799.775 174.774 798.859 174.656 798.778 175.246C798.704 175.836 799.62 175.954 799.701 175.364Z" fill="#BAC7FF"/>
</g>
<g opacity="0.77">
<path d="M809.135 184.115C809.09 183.533 808.182 183.599 808.226 184.182C808.27 184.765 809.179 184.698 809.135 184.115Z" fill="#BAC7FF"/>
</g>
<g opacity="0.14">
<path d="M800.595 230.432C800.839 229.952 800.093 229.569 799.849 230.048C799.605 230.528 800.351 230.912 800.595 230.432Z" fill="#BAC7FF"/>
</g>
<path d="M826.442 280.062C826.731 279.715 826.191 279.272 825.903 279.619C825.615 279.966 826.154 280.409 826.442 280.062Z" fill="#BAC7FF"/>
<g opacity="0.32">
<path d="M784.595 253.439C784.765 252.974 784.041 252.716 783.871 253.181C783.701 253.646 784.425 253.904 784.595 253.439Z" fill="#BAC7FF"/>
</g>
<g opacity="0.99">
<path d="M830.823 255.011C831.148 254.671 830.624 254.162 830.291 254.509C829.966 254.848 830.491 255.358 830.823 255.011Z" fill="#BAC7FF"/>
</g>
<path d="M854.151 240.113C854.439 239.766 853.9 239.323 853.612 239.67C853.324 240.017 853.863 240.46 854.151 240.113Z" fill="#BAC7FF"/>
<path d="M847.658 185.399C847.798 184.957 847.104 184.735 846.964 185.178C846.823 185.621 847.518 185.842 847.658 185.399Z" fill="#BAC7FF"/>
<g opacity="0.98">
<path d="M861.974 161.809C862.203 161.426 861.605 161.064 861.369 161.455C861.14 161.839 861.738 162.2 861.974 161.809Z" fill="#BAC7FF"/>
</g>
<g opacity="0.42">
<path d="M831.702 174.951C831.606 174.39 830.734 174.538 830.83 175.099C830.926 175.659 831.798 175.512 831.702 174.951Z" fill="#BAC7FF"/>
</g>
<g opacity="0.86">
<path d="M807.827 168.635C807.62 168.089 806.771 168.413 806.978 168.959C807.184 169.505 808.034 169.181 807.827 168.635Z" fill="#BAC7FF"/>
</g>
<g opacity="0.76">
<path d="M836.592 145.665C836.858 145.163 836.083 144.75 835.817 145.244C835.551 145.746 836.326 146.159 836.592 145.665Z" fill="#BAC7FF"/>
</g>
<g opacity="0.71">
<path d="M812.141 167.122C811.742 166.694 811.077 167.314 811.476 167.742C811.875 168.17 812.54 167.55 812.141 167.122Z" fill="#BAC7FF"/>
</g>
<g opacity="0.7">
<path d="M757.255 162.562C757.913 161.964 756.982 160.946 756.324 161.544C755.667 162.141 756.598 163.16 757.255 162.562Z" fill="#BAC7FF"/>
</g>
<g opacity="0.68">
<path d="M750.142 159.5C750.696 159.042 749.986 158.179 749.425 158.637C748.871 159.094 749.58 159.957 750.142 159.5Z" fill="#BAC7FF"/>
</g>
<g opacity="0.64">
<path d="M760.077 198.194C760.698 198.113 760.572 197.154 759.952 197.235C759.331 197.316 759.457 198.275 760.077 198.194Z" fill="#BAC7FF"/>
</g>
<g opacity="0.68">
<path d="M727.064 206.473C727.448 206.023 726.761 205.425 726.37 205.868C725.978 206.318 726.673 206.916 727.064 206.473Z" fill="#BAC7FF"/>
</g>
<path d="M660.197 247.905C660.485 247.558 659.945 247.115 659.657 247.462C659.369 247.809 659.909 248.252 660.197 247.905Z" fill="#BAC7FF"/>
<path d="M665.685 264.847C665.973 264.5 665.434 264.057 665.146 264.404C664.858 264.751 665.397 265.194 665.685 264.847Z" fill="#BAC7FF"/>
<path d="M684.397 231.34C684.685 230.993 684.146 230.55 683.857 230.897C683.569 231.244 684.109 231.686 684.397 231.34Z" fill="#BAC7FF"/>
<g opacity="0.63">
<path d="M678.48 158.467C678.775 158.135 678.258 157.67 677.963 158.002C677.667 158.334 678.184 158.799 678.48 158.467Z" fill="#BAC7FF"/>
</g>
<g opacity="0.68">
<path d="M681.036 165.683C681.338 165.351 680.821 164.886 680.518 165.211C680.216 165.543 680.733 166.008 681.036 165.683Z" fill="#BAC7FF"/>
</g>
<g opacity="0.76">
<path d="M697.782 163.986C698.292 164.075 698.432 163.292 697.922 163.197C697.413 163.108 697.272 163.89 697.782 163.986Z" fill="#BAC7FF"/>
</g>
<g opacity="0.88">
<path d="M702.606 147.561C702.901 147.996 703.573 147.539 703.278 147.111C702.983 146.675 702.31 147.133 702.606 147.561Z" fill="#BAC7FF"/>
</g>
<path d="M709.151 133.194C709.476 132.862 708.966 132.353 708.634 132.685C708.309 133.017 708.818 133.526 709.151 133.194Z" fill="#BAC7FF"/>
<path d="M723.208 133.039C723.607 132.803 723.238 132.184 722.839 132.42C722.44 132.656 722.809 133.276 723.208 133.039Z" fill="#BAC7FF"/>
</g>
<g style="mix-blend-mode:screen" opacity="0.63">
<g opacity="0.55">
<path d="M877.99 265.799C878.595 265.068 877.45 264.131 876.852 264.862C876.246 265.592 877.391 266.529 877.99 265.799Z" fill="#BAC7FF"/>
</g>
<g opacity="0.7">
<path d="M884.084 271.945C884.941 270.905 883.323 269.569 882.459 270.61C881.602 271.65 883.22 272.986 884.084 271.945Z" fill="#BAC7FF"/>
</g>
<g opacity="0.98">
<path d="M924.262 298.184C925.001 297.284 923.605 296.133 922.866 297.033C922.127 297.933 923.523 299.084 924.262 298.184Z" fill="#BAC7FF"/>
</g>
<g opacity="0.98">
<path d="M881.912 343.04C882.688 342.095 881.218 340.885 880.442 341.83C879.666 342.774 881.136 343.984 881.912 343.04Z" fill="#BAC7FF"/>
</g>
<g opacity="0.84">
<path d="M856.752 338.125C857.83 336.812 855.791 335.13 854.705 336.45C853.627 337.764 855.666 339.446 856.752 338.125Z" fill="#BAC7FF"/>
</g>
<g opacity="0.14">
<path d="M855.629 235.752C856.198 235.066 855.126 234.181 854.558 234.874C853.989 235.56 855.06 236.446 855.629 235.752Z" fill="#BAC7FF"/>
</g>
<path d="M941.939 270.145C942.538 269.422 941.407 268.499 940.816 269.222C940.218 269.946 941.348 270.868 941.939 270.145Z" fill="#BAC7FF"/>
<g opacity="0.86">
<path d="M913.47 231.797C914.26 230.831 912.768 229.598 911.97 230.565C911.18 231.532 912.679 232.764 913.47 231.797Z" fill="#BAC7FF"/>
</g>
<g opacity="0.73">
<path d="M838.062 272.882C838.735 272.063 837.464 271.015 836.784 271.835C836.112 272.654 837.383 273.701 838.062 272.882Z" fill="#BAC7FF"/>
</g>
<g opacity="0.77">
<path d="M806.653 304.825C807.31 304.028 806.069 303.01 805.412 303.807C804.754 304.604 805.995 305.622 806.653 304.825Z" fill="#BAC7FF"/>
</g>
<g opacity="0.85">
<path d="M779.594 309.547C780.251 308.743 779.01 307.718 778.345 308.522C777.688 309.326 778.929 310.352 779.594 309.547Z" fill="#BAC7FF"/>
</g>
<g opacity="0.88">
<path d="M751.479 296.738C752.106 295.97 750.917 294.996 750.289 295.764C749.661 296.531 750.851 297.505 751.479 296.738Z" fill="#BAC7FF"/>
</g>
<g opacity="0.9">
<path d="M706.55 358.432C707.304 357.51 705.878 356.336 705.117 357.259C704.364 358.181 705.79 359.354 706.55 358.432Z" fill="#BAC7FF"/>
</g>
<g opacity="0.36">
<path d="M766.733 320.402C767.486 319.487 766.068 318.321 765.315 319.236C764.561 320.151 765.979 321.317 766.733 320.402Z" fill="#BAC7FF"/>
</g>
<g opacity="0.9">
<path d="M783.561 211.255C784.358 210.288 782.851 209.041 782.054 210.015C781.256 210.982 782.763 212.229 783.561 211.255Z" fill="#BAC7FF"/>
</g>
<g opacity="0.26">
<path d="M836.954 222.935C837.664 222.072 836.319 220.965 835.61 221.828C834.901 222.692 836.245 223.799 836.954 222.935Z" fill="#BAC7FF"/>
</g>
<g opacity="0.58">
<path d="M805.567 222.352C806.143 221.651 805.057 220.759 804.481 221.46C803.905 222.161 804.99 223.053 805.567 222.352Z" fill="#BAC7FF"/>
</g>
<g opacity="0.88">
<path d="M780.805 198.969C781.537 198.083 780.155 196.954 779.431 197.84C778.7 198.725 780.081 199.854 780.805 198.969Z" fill="#BAC7FF"/>
</g>
<g opacity="0.75">
<path d="M758.467 154.918C759.168 154.069 757.846 152.984 757.144 153.833C756.443 154.681 757.765 155.766 758.467 154.918Z" fill="#BAC7FF"/>
</g>
<g opacity="0.28">
<path d="M677.896 213.062C678.509 212.317 677.349 211.365 676.736 212.111C676.123 212.856 677.283 213.808 677.896 213.062Z" fill="#BAC7FF"/>
</g>
<g opacity="0.43">
<path d="M655.809 264.758C656.68 263.703 655.033 262.353 654.161 263.408C653.29 264.463 654.937 265.813 655.809 264.758Z" fill="#BAC7FF"/>
</g>
<g opacity="0.51">
<path d="M620.934 320.055C622.102 318.631 619.893 316.816 618.726 318.24C617.559 319.664 619.767 321.479 620.934 320.055Z" fill="#BAC7FF"/>
</g>
<g opacity="0.37">
<path d="M638.154 300.663C638.929 299.726 637.467 298.524 636.691 299.461C635.915 300.398 637.378 301.601 638.154 300.663Z" fill="#BAC7FF"/>
</g>
<g opacity="0.49">
<path d="M647.062 172.605C647.905 171.579 646.316 170.273 645.474 171.299C644.632 172.324 646.22 173.63 647.062 172.605Z" fill="#BAC7FF"/>
</g>
<g opacity="0.76">
<path d="M631.771 179.917C632.318 179.253 631.284 178.404 630.737 179.068C630.19 179.732 631.225 180.581 631.771 179.917Z" fill="#BAC7FF"/>
</g>
<g opacity="0.58">
<path d="M607.29 158.614C607.992 157.758 606.663 156.666 605.961 157.522C605.259 158.378 606.589 159.47 607.29 158.614Z" fill="#BAC7FF"/>
</g>
<g opacity="0.79">
<path d="M575.888 185.643C576.479 184.927 575.364 184.005 574.773 184.728C574.182 185.444 575.297 186.366 575.888 185.643Z" fill="#BAC7FF"/>
</g>
<g opacity="0.68">
<path d="M673.294 126.288C673.796 125.675 672.843 124.893 672.341 125.506C671.839 126.118 672.792 126.9 673.294 126.288Z" fill="#BAC7FF"/>
</g>
<g opacity="0.91">
<path d="M705.908 107.044C706.587 106.218 705.302 105.155 704.615 105.989C703.935 106.815 705.221 107.878 705.908 107.044Z" fill="#BAC7FF"/>
</g>
<g opacity="0.64">
<path d="M660.588 108.719C661.098 108.099 660.138 107.31 659.62 107.93C659.111 108.549 660.071 109.339 660.588 108.719Z" fill="#BAC7FF"/>
</g>
<g opacity="0.93">
<path d="M659.355 152.962C659.901 152.305 658.874 151.457 658.328 152.121C657.781 152.778 658.808 153.626 659.355 152.962Z" fill="#BAC7FF"/>
</g>
<g opacity="0.92">
<path d="M794.331 119.581C794.981 118.791 793.755 117.78 793.105 118.57C792.455 119.359 793.681 120.37 794.331 119.581Z" fill="#BAC7FF"/>
</g>
<g opacity="0.37">
<path d="M875.788 106.535C876.423 105.76 875.227 104.779 874.584 105.546C873.949 106.321 875.145 107.302 875.788 106.535Z" fill="#BAC7FF"/>
</g>
<g opacity="0.92">
<path d="M899.249 64.6603C899.781 64.0184 898.777 63.1919 898.252 63.8413C897.72 64.4832 898.725 65.3096 899.249 64.6603Z" fill="#BAC7FF"/>
</g>
<g opacity="0.4">
<path d="M845.597 97.6803C846.351 96.7654 844.932 95.5995 844.179 96.5145C843.425 97.4294 844.844 98.5953 845.597 97.6803Z" fill="#BAC7FF"/>
</g>
<g opacity="0.28">
<path d="M856.855 111.036C857.446 110.32 856.331 109.398 855.74 110.121C855.149 110.837 856.264 111.759 856.855 111.036Z" fill="#BAC7FF"/>
</g>
<path d="M989.46 110.416C990.022 109.737 988.965 108.867 988.404 109.545C987.842 110.224 988.899 111.095 989.46 110.416Z" fill="#BAC7FF"/>
<g opacity="0.86">
<path d="M930.615 154.895C931.095 154.312 930.186 153.567 929.706 154.15C929.226 154.733 930.135 155.478 930.615 154.895Z" fill="#BAC7FF"/>
</g>
<g opacity="0.41">
<path d="M881.232 184.47C881.919 183.636 880.619 182.566 879.932 183.4C879.245 184.234 880.545 185.303 881.232 184.47Z" fill="#BAC7FF"/>
</g>
<g opacity="0.73">
<path d="M742.762 133.932C743.508 133.032 742.104 131.874 741.358 132.781C740.612 133.681 742.023 134.84 742.762 133.932Z" fill="#BAC7FF"/>
</g>
<g opacity="0.52">
<path d="M723.711 227.842C724.302 227.119 723.186 226.197 722.588 226.92C721.997 227.643 723.112 228.565 723.711 227.842Z" fill="#BAC7FF"/>
</g>
<g opacity="0.74">
<path d="M705.915 300.531C706.617 299.682 705.295 298.597 704.593 299.446C703.891 300.294 705.213 301.379 705.915 300.531Z" fill="#BAC7FF"/>
</g>
<g opacity="0.72">
<path d="M770.249 315.008C770.921 314.196 769.651 313.156 768.986 313.967C768.314 314.779 769.584 315.819 770.249 315.008Z" fill="#BAC7FF"/>
</g>
<g opacity="0.63">
<path d="M754.448 391.511C755.054 390.773 753.909 389.829 753.296 390.567C752.69 391.304 753.835 392.249 754.448 391.511Z" fill="#BAC7FF"/>
</g>
<path d="M742.932 422.177C743.56 421.41 742.37 420.436 741.742 421.203C741.115 421.971 742.304 422.945 742.932 422.177Z" fill="#BAC7FF"/>
<g opacity="0.34">
<path d="M653.777 270.3C654.76 269.112 652.906 267.584 651.923 268.78C650.941 269.968 652.795 271.495 653.777 270.3Z" fill="#BAC7FF"/>
</g>
<g opacity="0.94">
<path d="M606.618 267.444C607.394 266.507 605.931 265.304 605.156 266.241C604.38 267.178 605.843 268.381 606.618 267.444Z" fill="#BAC7FF"/>
</g>
<g opacity="0.98">
<path d="M580.97 269.466C581.657 268.625 580.357 267.555 579.663 268.396C578.976 269.237 580.276 270.307 580.97 269.466Z" fill="#BAC7FF"/>
</g>
<g opacity="0.98">
<path d="M567.371 257.549C568.021 256.76 566.795 255.756 566.145 256.546C565.495 257.335 566.721 258.339 567.371 257.549Z" fill="#BAC7FF"/>
</g>
<g opacity="0.38">
<path d="M714.425 221.076C714.987 220.397 713.93 219.526 713.369 220.205C712.807 220.884 713.864 221.755 714.425 221.076Z" fill="#BAC7FF"/>
</g>
<g opacity="0.71">
<path d="M725.181 218.744C726.097 217.63 724.368 216.206 723.445 217.32C722.529 218.434 724.257 219.858 725.181 218.744Z" fill="#BAC7FF"/>
</g>
<g opacity="0.23">
<path d="M647.831 213.608C648.702 212.546 647.055 211.188 646.176 212.251C645.304 213.313 646.952 214.671 647.831 213.608Z" fill="#BAC7FF"/>
</g>
<g opacity="0.37">
<path d="M627.649 297.033C628.543 295.948 626.851 294.561 625.958 295.646C625.064 296.73 626.755 298.118 627.649 297.033Z" fill="#BAC7FF"/>
</g>
<g opacity="0.62">
<path d="M629.311 337.838C630.08 336.908 628.632 335.72 627.863 336.65C627.095 337.579 628.543 338.767 629.311 337.838Z" fill="#BAC7FF"/>
</g>
<g opacity="0.95">
<path d="M599.253 366.918C599.911 366.113 598.67 365.095 598.005 365.892C597.348 366.696 598.589 367.714 599.253 366.918Z" fill="#BAC7FF"/>
</g>
<g opacity="0.34">
<path d="M657.205 278.852C657.877 278.033 656.607 276.985 655.927 277.804C655.255 278.623 656.525 279.671 657.205 278.852Z" fill="#BAC7FF"/>
</g>
<g opacity="0.61">
<path d="M713.561 261.061C714.263 260.205 712.933 259.113 712.231 259.969C711.529 260.825 712.859 261.917 713.561 261.061Z" fill="#BAC7FF"/>
</g>
<g opacity="0.56">
<path d="M734.488 282.777C735.153 281.966 733.897 280.933 733.225 281.744C732.56 282.556 733.816 283.589 734.488 282.777Z" fill="#BAC7FF"/>
</g>
<g opacity="0.76">
<path d="M805.604 264.175C806.136 263.526 805.131 262.699 804.599 263.349C804.067 263.998 805.072 264.825 805.604 264.175Z" fill="#BAC7FF"/>
</g>
<g opacity="0.91">
<path d="M799.76 256.929C800.603 255.904 799.007 254.59 798.165 255.616C797.323 256.642 798.918 257.955 799.76 256.929Z" fill="#BAC7FF"/>
</g>
<g opacity="0.34">
<path d="M656.119 220.817C657.198 219.511 655.159 217.836 654.088 219.15C653.009 220.456 655.041 222.131 656.119 220.817Z" fill="#BAC7FF"/>
</g>
<g opacity="0.62">
<path d="M595.205 111.744C595.678 111.169 594.784 110.438 594.311 111.014C593.839 111.589 594.732 112.32 595.205 111.744Z" fill="#BAC7FF"/>
</g>
<g opacity="0.28">
<path d="M603.567 94.9797C604.698 93.5998 602.563 91.8437 601.425 93.2235C600.295 94.6034 602.43 96.3595 603.567 94.9797Z" fill="#BAC7FF"/>
</g>
<g opacity="0.92">
<path d="M607.963 34.09C608.605 33.3078 607.394 32.3117 606.751 33.0938C606.109 33.876 607.32 34.8721 607.963 34.09Z" fill="#BAC7FF"/>
</g>
<g opacity="0.75">
<path d="M590.596 35.9125C591.179 35.1967 590.071 34.2891 589.488 34.9975C588.904 35.7132 590.012 36.6208 590.596 35.9125Z" fill="#BAC7FF"/>
</g>
</g>
<g style="mix-blend-mode:screen" opacity="0.49">
<g opacity="0.91">
<path d="M1239.95 279.479C1240.11 279.907 1239.45 280.158 1239.28 279.73C1239.12 279.302 1239.79 279.051 1239.95 279.479Z" fill="#BAC7FF"/>
</g>
<g opacity="0.12">
<path d="M1224.82 265.732C1225.06 266.227 1224.29 266.603 1224.05 266.109C1223.81 265.614 1224.58 265.238 1224.82 265.732Z" fill="#BAC7FF"/>
</g>
<g opacity="0.19">
<path d="M1210.14 252.997C1210.44 253.439 1209.75 253.904 1209.45 253.461C1209.16 253.019 1209.85 252.554 1210.14 252.997Z" fill="#BAC7FF"/>
</g>
<g opacity="0.15">
<path d="M1188.04 249.189C1188.19 249.669 1187.44 249.905 1187.29 249.418C1187.14 248.938 1187.88 248.702 1188.04 249.189Z" fill="#BAC7FF"/>
</g>
<path d="M1156.9 253.535C1157.04 253.963 1156.38 254.185 1156.24 253.757C1156.1 253.329 1156.76 253.107 1156.9 253.535Z" fill="#BAC7FF"/>
<g opacity="0.93">
<path d="M1165.25 277.273C1165.66 277.597 1165.15 278.232 1164.75 277.907C1164.34 277.583 1164.84 276.948 1165.25 277.273Z" fill="#BAC7FF"/>
</g>
<g opacity="0.64">
<path d="M1203.86 290.031C1203.94 290.614 1203.04 290.746 1202.95 290.164C1202.87 289.581 1203.78 289.448 1203.86 290.031Z" fill="#BAC7FF"/>
</g>
<g opacity="0.94">
<path d="M1222.91 292.385C1222.77 292.849 1222.06 292.643 1222.19 292.185C1222.32 291.72 1223.04 291.927 1222.91 292.385Z" fill="#BAC7FF"/>
</g>
<path d="M1205.92 338.576C1206.43 338.708 1206.22 339.498 1205.71 339.365C1205.2 339.232 1205.41 338.443 1205.92 338.576Z" fill="#BAC7FF"/>
<path d="M1175.26 340.177C1175.59 340.472 1175.13 340.996 1174.79 340.693C1174.46 340.398 1174.93 339.874 1175.26 340.177Z" fill="#BAC7FF"/>
<g opacity="0.51">
<path d="M1128.72 323.066C1129.2 323.161 1129.05 323.914 1128.57 323.818C1128.09 323.722 1128.24 322.97 1128.72 323.066Z" fill="#BAC7FF"/>
</g>
<g opacity="0.9">
<path d="M1097.06 307.784C1097.67 307.784 1097.68 308.729 1097.07 308.736C1096.45 308.736 1096.45 307.791 1097.06 307.784Z" fill="#BAC7FF"/>
</g>
<g opacity="0.31">
<path d="M1112.33 265.127C1112.58 265.592 1111.85 265.983 1111.6 265.518C1111.35 265.054 1112.08 264.662 1112.33 265.127Z" fill="#BAC7FF"/>
</g>
<g opacity="0.62">
<path d="M1127.66 251.049C1127.82 251.617 1126.93 251.86 1126.78 251.292C1126.62 250.724 1127.51 250.48 1127.66 251.049Z" fill="#BAC7FF"/>
</g>
<path d="M1144.17 233.539C1144.37 233.981 1143.68 234.277 1143.49 233.834C1143.3 233.391 1143.98 233.096 1144.17 233.539Z" fill="#BAC7FF"/>
<path d="M1152.03 221.858C1152.12 222.301 1151.43 222.434 1151.35 221.991C1151.26 221.548 1151.95 221.415 1152.03 221.858Z" fill="#BAC7FF"/>
<path d="M1131.94 220.331C1132.13 220.81 1131.38 221.098 1131.2 220.618C1131.01 220.139 1131.76 219.851 1131.94 220.331Z" fill="#BAC7FF"/>
<g opacity="0.53">
<path d="M1105.55 237.789C1105.85 238.239 1105.16 238.704 1104.85 238.261C1104.55 237.811 1105.25 237.346 1105.55 237.789Z" fill="#BAC7FF"/>
</g>
<g opacity="0.58">
<path d="M1092.24 250.111C1092.52 250.495 1091.92 250.938 1091.64 250.554C1091.36 250.171 1091.96 249.728 1092.24 250.111Z" fill="#BAC7FF"/>
</g>
<g opacity="0.64">
<path d="M1102.95 271.953C1103.33 272.44 1102.59 273.037 1102.19 272.55C1101.81 272.063 1102.56 271.466 1102.95 271.953Z" fill="#BAC7FF"/>
</g>
<g opacity="0.38">
<path d="M1138.97 287.847C1140.09 287.633 1140.42 289.374 1139.3 289.588C1138.18 289.802 1137.84 288.061 1138.97 287.847Z" fill="#BAC7FF"/>
</g>
<g opacity="0.41">
<path d="M1133.45 293.477C1134.69 293.528 1134.61 295.461 1133.37 295.402C1132.13 295.351 1132.21 293.418 1133.45 293.477Z" fill="#BAC7FF"/>
</g>
<path d="M1097.3 290.451C1097.7 291.167 1096.58 291.779 1096.19 291.064C1095.79 290.348 1096.91 289.736 1097.3 290.451Z" fill="#BAC7FF"/>
<g opacity="0.91">
<path d="M1095.38 304.331C1095.96 304.515 1095.67 305.415 1095.1 305.231C1094.52 305.047 1094.81 304.146 1095.38 304.331Z" fill="#BAC7FF"/>
</g>
<path d="M1097.42 341.697C1097.68 342.073 1097.1 342.472 1096.84 342.103C1096.58 341.726 1097.16 341.328 1097.42 341.697Z" fill="#BAC7FF"/>
<g opacity="0.43">
<path d="M1122.49 307.622C1123.17 307.976 1122.62 309.024 1121.94 308.669C1121.27 308.315 1121.81 307.267 1122.49 307.622Z" fill="#BAC7FF"/>
</g>
<path d="M1185.05 303.991C1185.2 304.56 1184.32 304.781 1184.18 304.213C1184.04 303.645 1184.91 303.423 1185.05 303.991Z" fill="#BAC7FF"/>
<path d="M1191.97 322.534C1192.47 322.416 1192.66 323.198 1192.15 323.316C1191.65 323.434 1191.46 322.652 1191.97 322.534Z" fill="#BAC7FF"/>
<g opacity="0.95">
<path d="M1194 304.545C1194.04 305.142 1193.11 305.201 1193.08 304.611C1193.03 304.013 1193.96 303.954 1194 304.545Z" fill="#BAC7FF"/>
</g>
<g opacity="0.77">
<path d="M1203.91 296.332C1203.83 296.915 1202.93 296.797 1203.01 296.214C1203.08 295.631 1203.98 295.749 1203.91 296.332Z" fill="#BAC7FF"/>
</g>
<g opacity="0.14">
<path d="M1197.93 249.617C1198.15 250.111 1197.38 250.451 1197.16 249.956C1196.94 249.462 1197.71 249.123 1197.93 249.617Z" fill="#BAC7FF"/>
</g>
<path d="M1226.47 201.478C1226.74 201.839 1226.18 202.253 1225.91 201.891C1225.65 201.529 1226.21 201.116 1226.47 201.478Z" fill="#BAC7FF"/>
<g opacity="0.32">
<path d="M1183.23 225.761C1183.37 226.234 1182.63 226.455 1182.49 225.983C1182.35 225.511 1183.09 225.289 1183.23 225.761Z" fill="#BAC7FF"/>
</g>
<g opacity="0.99">
<path d="M1229.47 226.735C1229.78 227.09 1229.22 227.569 1228.92 227.208C1228.62 226.854 1229.17 226.374 1229.47 226.735Z" fill="#BAC7FF"/>
</g>
<path d="M1251.94 242.895C1252.21 243.257 1251.65 243.67 1251.38 243.308C1251.11 242.947 1251.67 242.533 1251.94 242.895Z" fill="#BAC7FF"/>
<path d="M1242.44 297.166C1242.56 297.616 1241.85 297.801 1241.74 297.343C1241.62 296.893 1242.32 296.708 1242.44 297.166Z" fill="#BAC7FF"/>
<g opacity="0.98">
<path d="M1255.43 321.509C1255.64 321.907 1255.02 322.232 1254.81 321.833C1254.6 321.435 1255.22 321.11 1255.43 321.509Z" fill="#BAC7FF"/>
</g>
<g opacity="0.42">
<path d="M1225.93 306.721C1225.81 307.275 1224.95 307.083 1225.07 306.522C1225.2 305.969 1226.06 306.161 1225.93 306.721Z" fill="#BAC7FF"/>
</g>
<g opacity="0.86">
<path d="M1201.74 311.717C1201.51 312.248 1200.68 311.879 1200.91 311.348C1201.15 310.817 1201.98 311.186 1201.74 311.717Z" fill="#BAC7FF"/>
</g>
<g opacity="0.76">
<path d="M1229.19 336.229C1229.44 336.738 1228.64 337.115 1228.39 336.606C1228.15 336.096 1228.95 335.72 1229.19 336.229Z" fill="#BAC7FF"/>
</g>
<g opacity="0.71">
<path d="M1205.97 313.466C1205.55 313.872 1204.91 313.215 1205.34 312.809C1205.76 312.403 1206.4 313.06 1205.97 313.466Z" fill="#BAC7FF"/>
</g>
<g opacity="0.7">
<path d="M1150.91 314.993C1151.53 315.628 1150.55 316.594 1149.92 315.96C1149.3 315.325 1150.28 314.359 1150.91 314.993Z" fill="#BAC7FF"/>
</g>
<g opacity="0.68">
<path d="M1143.64 317.657C1144.17 318.144 1143.41 318.97 1142.87 318.476C1142.34 317.989 1143.1 317.162 1143.64 317.657Z" fill="#BAC7FF"/>
</g>
<g opacity="0.64">
<path d="M1155.7 279.575C1156.31 279.693 1156.13 280.637 1155.52 280.527C1154.91 280.409 1155.09 279.464 1155.7 279.575Z" fill="#BAC7FF"/>
</g>
<g opacity="0.68">
<path d="M1123.19 269.488C1123.55 269.953 1122.83 270.521 1122.46 270.049C1122.1 269.584 1122.83 269.016 1123.19 269.488Z" fill="#BAC7FF"/>
</g>
<path d="M1058.71 224.441C1058.97 224.802 1058.41 225.215 1058.15 224.854C1057.88 224.492 1058.44 224.079 1058.71 224.441Z" fill="#BAC7FF"/>
<path d="M1065.13 207.824C1065.39 208.185 1064.83 208.598 1064.56 208.237C1064.3 207.875 1064.86 207.462 1065.13 207.824Z" fill="#BAC7FF"/>
<path d="M1081.96 242.312C1082.23 242.674 1081.67 243.087 1081.4 242.725C1081.13 242.364 1081.7 241.951 1081.96 242.312Z" fill="#BAC7FF"/>
<g opacity="0.63">
<path d="M1072.03 314.75C1072.31 315.096 1071.77 315.532 1071.49 315.185C1071.21 314.838 1071.75 314.403 1072.03 314.75Z" fill="#BAC7FF"/>
</g>
<g opacity="0.68">
<path d="M1074.98 307.688C1075.26 308.035 1074.72 308.478 1074.44 308.131C1074.16 307.784 1074.7 307.341 1074.98 307.688Z" fill="#BAC7FF"/>
</g>
<g opacity="0.76">
<path d="M1091.61 310.3C1092.12 310.241 1092.21 311.031 1091.7 311.097C1091.19 311.156 1091.1 310.367 1091.61 310.3Z" fill="#BAC7FF"/>
</g>
<g opacity="0.88">
<path d="M1095.52 326.961C1095.83 326.548 1096.48 327.035 1096.17 327.448C1095.85 327.862 1095.21 327.375 1095.52 326.961Z" fill="#BAC7FF"/>
</g>
<path d="M1101.26 341.667C1101.57 342.014 1101.03 342.494 1100.72 342.147C1100.41 341.8 1100.95 341.321 1101.26 341.667Z" fill="#BAC7FF"/>
<path d="M1115.29 342.597C1115.68 342.855 1115.28 343.453 1114.89 343.195C1114.51 342.936 1114.91 342.339 1115.29 342.597Z" fill="#BAC7FF"/>
</g>
<g style="mix-blend-mode:screen" opacity="0.63">
<g opacity="0.55">
<path d="M1277.16 218.567C1277.73 219.334 1276.54 220.205 1275.97 219.438C1275.41 218.67 1276.6 217.8 1277.16 218.567Z" fill="#BAC7FF"/>
</g>
<g opacity="0.7">
<path d="M1283.58 212.76C1284.38 213.852 1282.69 215.092 1281.89 214C1281.09 212.908 1282.79 211.668 1283.58 212.76Z" fill="#BAC7FF"/>
</g>
<g opacity="0.98">
<path d="M1325.15 188.771C1325.84 189.709 1324.38 190.778 1323.69 189.841C1323 188.904 1324.46 187.834 1325.15 188.771Z" fill="#BAC7FF"/>
</g>
<g opacity="0.98">
<path d="M1285.33 141.651C1286.06 142.639 1284.52 143.761 1283.8 142.772C1283.07 141.783 1284.6 140.662 1285.33 141.651Z" fill="#BAC7FF"/>
</g>
<g opacity="0.84">
<path d="M1259.94 145.17C1260.94 146.543 1258.81 148.107 1257.8 146.735C1256.8 145.362 1258.93 143.798 1259.94 145.17Z" fill="#BAC7FF"/>
</g>
<g opacity="0.14">
<path d="M1253.17 247.33C1253.7 248.045 1252.58 248.872 1252.06 248.149C1251.53 247.433 1252.65 246.606 1253.17 247.33Z" fill="#BAC7FF"/>
</g>
<path d="M1341.25 217.741C1341.8 218.493 1340.63 219.357 1340.07 218.604C1339.52 217.851 1340.69 216.988 1341.25 217.741Z" fill="#BAC7FF"/>
<g opacity="0.86">
<path d="M1310.71 254.465C1311.45 255.468 1309.88 256.62 1309.14 255.609C1308.4 254.605 1309.97 253.454 1310.71 254.465Z" fill="#BAC7FF"/>
</g>
<g opacity="0.73">
<path d="M1237.68 209.292C1238.31 210.148 1236.98 211.122 1236.35 210.266C1235.72 209.41 1237.05 208.436 1237.68 209.292Z" fill="#BAC7FF"/>
</g>
<g opacity="0.77">
<path d="M1208.08 175.667C1208.69 176.501 1207.4 177.445 1206.79 176.611C1206.17 175.777 1207.47 174.833 1208.08 175.667Z" fill="#BAC7FF"/>
</g>
<g opacity="0.85">
<path d="M1181.32 169.461C1181.94 170.302 1180.64 171.254 1180.02 170.413C1179.41 169.572 1180.71 168.62 1181.32 169.461Z" fill="#BAC7FF"/>
</g>
<g opacity="0.88">
<path d="M1152.55 180.706C1153.14 181.503 1151.89 182.418 1151.31 181.614C1150.73 180.817 1151.97 179.902 1152.55 180.706Z" fill="#BAC7FF"/>
</g>
<g opacity="0.9">
<path d="M1111.09 116.629C1111.79 117.588 1110.3 118.688 1109.6 117.721C1108.89 116.762 1110.39 115.663 1111.09 116.629Z" fill="#BAC7FF"/>
</g>
<g opacity="0.36">
<path d="M1169.08 157.921C1169.79 158.873 1168.3 159.965 1167.6 159.005C1166.9 158.054 1168.38 156.962 1169.08 157.921Z" fill="#BAC7FF"/>
</g>
<g opacity="0.9">
<path d="M1179.86 267.828C1180.61 268.839 1179.03 269.997 1178.29 268.979C1177.54 267.968 1179.12 266.81 1179.86 267.828Z" fill="#BAC7FF"/>
</g>
<g opacity="0.26">
<path d="M1233.82 259.106C1234.49 260.006 1233.09 261.039 1232.42 260.132C1231.76 259.232 1233.16 258.199 1233.82 259.106Z" fill="#BAC7FF"/>
</g>
<g opacity="0.58">
<path d="M1202.45 257.955C1202.98 258.686 1201.85 259.512 1201.32 258.789C1200.79 258.058 1201.92 257.232 1202.45 257.955Z" fill="#BAC7FF"/>
</g>
<g opacity="0.88">
<path d="M1176.43 279.944C1177.11 280.866 1175.67 281.921 1174.99 280.999C1174.31 280.077 1175.75 279.021 1176.43 279.944Z" fill="#BAC7FF"/>
</g>
<g opacity="0.75">
<path d="M1151.7 322.689C1152.35 323.575 1150.98 324.585 1150.32 323.7C1149.67 322.815 1151.04 321.804 1151.7 322.689Z" fill="#BAC7FF"/>
</g>
<g opacity="0.28">
<path d="M1074.46 260.198C1075.02 260.973 1073.82 261.866 1073.24 261.084C1072.68 260.309 1073.88 259.416 1074.46 260.198Z" fill="#BAC7FF"/>
</g>
<g opacity="0.43">
<path d="M1055.26 207.373C1056.07 208.48 1054.35 209.735 1053.54 208.628C1052.73 207.521 1054.45 206.267 1055.26 207.373Z" fill="#BAC7FF"/>
</g>
<g opacity="0.51">
<path d="M1023.49 150.239C1024.57 151.723 1022.27 153.412 1021.18 151.929C1020.09 150.446 1022.4 148.756 1023.49 150.239Z" fill="#BAC7FF"/>
</g>
<g opacity="0.37">
<path d="M1039.61 170.546C1040.33 171.527 1038.81 172.649 1038.08 171.66C1037.37 170.679 1038.89 169.557 1039.61 170.546Z" fill="#BAC7FF"/>
</g>
<g opacity="0.49">
<path d="M1041.44 298.907C1042.23 299.977 1040.56 301.195 1039.78 300.125C1039 299.055 1040.66 297.837 1041.44 298.907Z" fill="#BAC7FF"/>
</g>
<g opacity="0.76">
<path d="M1026.57 290.761C1027.08 291.455 1026 292.244 1025.49 291.551C1024.98 290.857 1026.06 290.068 1026.57 290.761Z" fill="#BAC7FF"/>
</g>
<g opacity="0.58">
<path d="M1000.96 310.684C1001.62 311.577 1000.23 312.595 999.573 311.702C998.916 310.809 1000.3 309.791 1000.96 310.684Z" fill="#BAC7FF"/>
</g>
<g opacity="0.79">
<path d="M971.096 281.966C971.643 282.718 970.483 283.567 969.929 282.822C969.382 282.069 970.542 281.22 971.096 281.966Z" fill="#BAC7FF"/>
</g>
<g opacity="0.68">
<path d="M1065.08 346.589C1065.55 347.231 1064.56 347.961 1064.08 347.319C1063.61 346.678 1064.61 345.947 1065.08 346.589Z" fill="#BAC7FF"/>
</g>
<g opacity="0.91">
<path d="M1096.58 367.604C1097.22 368.467 1095.87 369.456 1095.24 368.593C1094.6 367.729 1095.94 366.741 1096.58 367.604Z" fill="#BAC7FF"/>
</g>
<g opacity="0.64">
<path d="M1051.42 363.435C1051.9 364.084 1050.89 364.822 1050.42 364.173C1049.95 363.523 1050.95 362.785 1051.42 363.435Z" fill="#BAC7FF"/>
</g>
<g opacity="0.93">
<path d="M1052.63 319.192C1053.13 319.878 1052.06 320.667 1051.56 319.974C1051.05 319.288 1052.12 318.498 1052.63 319.192Z" fill="#BAC7FF"/>
</g>
<g opacity="0.92">
<path d="M1185.56 359.952C1186.17 360.778 1184.89 361.716 1184.28 360.889C1183.67 360.063 1184.96 359.126 1185.56 359.952Z" fill="#BAC7FF"/>
</g>
<g opacity="0.37">
<path d="M1266.18 377.462C1266.77 378.266 1265.52 379.188 1264.92 378.377C1264.33 377.573 1265.58 376.65 1266.18 377.462Z" fill="#BAC7FF"/>
</g>
<g opacity="0.92">
<path d="M1287.28 420.561C1287.78 421.233 1286.73 422 1286.24 421.329C1285.75 420.657 1286.8 419.89 1287.28 420.561Z" fill="#BAC7FF"/>
</g>
<g opacity="0.4">
<path d="M1235.55 384.641C1236.25 385.593 1234.76 386.685 1234.06 385.726C1233.36 384.774 1234.84 383.682 1235.55 384.641Z" fill="#BAC7FF"/>
</g>
<g opacity="0.28">
<path d="M1247.52 371.92C1248.07 372.673 1246.91 373.529 1246.35 372.776C1245.8 372.024 1246.97 371.168 1247.52 371.92Z" fill="#BAC7FF"/>
</g>
<path d="M1379.89 379.845C1380.41 380.554 1379.31 381.365 1378.78 380.657C1378.26 379.949 1379.36 379.137 1379.89 379.845Z" fill="#BAC7FF"/>
<g opacity="0.86">
<path d="M1323.58 332.193C1324.04 332.805 1323.08 333.499 1322.64 332.887C1322.19 332.282 1323.14 331.581 1323.58 332.193Z" fill="#BAC7FF"/>
</g>
<g opacity="0.41">
<path d="M1275.91 299.94C1276.55 300.811 1275.19 301.807 1274.55 300.936C1273.91 300.066 1275.27 299.07 1275.91 299.94Z" fill="#BAC7FF"/>
</g>
<g opacity="0.73">
<path d="M1134.87 342.782C1135.56 343.726 1134.09 344.803 1133.4 343.859C1132.7 342.914 1134.17 341.837 1134.87 342.782Z" fill="#BAC7FF"/>
</g>
<g opacity="0.52">
<path d="M1121.02 247.964C1121.57 248.717 1120.4 249.573 1119.85 248.82C1119.3 248.067 1120.47 247.212 1121.02 247.964Z" fill="#BAC7FF"/>
</g>
<g opacity="0.74">
<path d="M1107.26 174.412C1107.91 175.298 1106.54 176.309 1105.88 175.423C1105.23 174.538 1106.6 173.527 1107.26 174.412Z" fill="#BAC7FF"/>
</g>
<g opacity="0.72">
<path d="M1172.3 163.499C1172.92 164.348 1171.6 165.314 1170.98 164.466C1170.35 163.617 1171.67 162.651 1172.3 163.499Z" fill="#BAC7FF"/>
</g>
<g opacity="0.63">
<path d="M1160.74 86.2359C1161.31 87.0107 1160.11 87.8887 1159.54 87.114C1158.97 86.3392 1160.18 85.4611 1160.74 86.2359Z" fill="#BAC7FF"/>
</g>
<path d="M1150.93 54.9867C1151.52 55.7837 1150.28 56.6986 1149.69 55.8943C1149.11 55.0974 1150.35 54.1825 1150.93 54.9867Z" fill="#BAC7FF"/>
<g opacity="0.34">
<path d="M1053.54 201.721C1054.45 202.961 1052.52 204.385 1051.6 203.138C1050.68 201.898 1052.62 200.474 1053.54 201.721Z" fill="#BAC7FF"/>
</g>
<g opacity="0.94">
<path d="M1006.29 201.987C1007.01 202.968 1005.48 204.09 1004.76 203.109C1004.03 202.127 1005.56 201.006 1006.29 201.987Z" fill="#BAC7FF"/>
</g>
<g opacity="0.98">
<path d="M980.788 198.556C981.43 199.434 980.071 200.43 979.429 199.552C978.786 198.674 980.145 197.678 980.788 198.556Z" fill="#BAC7FF"/>
</g>
<g opacity="0.98">
<path d="M966.553 209.705C967.159 210.524 965.881 211.461 965.275 210.642C964.669 209.823 965.947 208.886 966.553 209.705Z" fill="#BAC7FF"/>
</g>
<g opacity="0.38">
<path d="M1111.38 254.214C1111.9 254.922 1110.79 255.734 1110.27 255.026C1109.74 254.317 1110.85 253.506 1111.38 254.214Z" fill="#BAC7FF"/>
</g>
<g opacity="0.71">
<path d="M1121.98 257.136C1122.84 258.302 1121.03 259.63 1120.17 258.464C1119.32 257.298 1121.13 255.97 1121.98 257.136Z" fill="#BAC7FF"/>
</g>
<g opacity="0.23">
<path d="M1044.47 257.999C1045.28 259.106 1043.56 260.375 1042.74 259.261C1041.93 258.154 1043.65 256.885 1044.47 257.999Z" fill="#BAC7FF"/>
</g>
<g opacity="0.37">
<path d="M1028.92 173.593C1029.76 174.73 1027.99 176.021 1027.16 174.885C1026.32 173.748 1028.09 172.457 1028.92 173.593Z" fill="#BAC7FF"/>
</g>
<g opacity="0.62">
<path d="M1032.84 132.944C1033.55 133.918 1032.04 135.024 1031.33 134.05C1030.62 133.076 1032.13 131.97 1032.84 132.944Z" fill="#BAC7FF"/>
</g>
<g opacity="0.95">
<path d="M1004.43 102.255C1005.04 103.089 1003.74 104.048 1003.13 103.207C1002.51 102.373 1003.81 101.414 1004.43 102.255Z" fill="#BAC7FF"/>
</g>
<g opacity="0.34">
<path d="M1057.43 193.368C1058.06 194.224 1056.73 195.198 1056.1 194.342C1055.47 193.487 1056.8 192.513 1057.43 193.368Z" fill="#BAC7FF"/>
</g>
<g opacity="0.61">
<path d="M1112.72 214.243C1113.38 215.136 1111.99 216.154 1111.33 215.261C1110.67 214.369 1112.06 213.35 1112.72 214.243Z" fill="#BAC7FF"/>
</g>
<g opacity="0.56">
<path d="M1134.82 193.708C1135.44 194.557 1134.12 195.516 1133.5 194.675C1132.88 193.826 1134.19 192.867 1134.82 193.708Z" fill="#BAC7FF"/>
</g>
<g opacity="0.76">
<path d="M1204.79 216.198C1205.29 216.87 1204.24 217.645 1203.74 216.966C1203.25 216.294 1204.3 215.52 1204.79 216.198Z" fill="#BAC7FF"/>
</g>
<g opacity="0.91">
<path d="M1198.56 223.112C1199.34 224.182 1197.68 225.407 1196.9 224.33C1196.11 223.26 1197.78 222.035 1198.56 223.112Z" fill="#BAC7FF"/>
</g>
<g opacity="0.34">
<path d="M1053.14 251.255C1054.15 252.62 1052.02 254.177 1051.02 252.812C1050.02 251.447 1052.15 249.89 1053.14 251.255Z" fill="#BAC7FF"/>
</g>
<g opacity="0.62">
<path d="M986.306 356.816C986.749 357.414 985.811 358.1 985.375 357.502C984.932 356.905 985.87 356.218 986.306 356.816Z" fill="#BAC7FF"/>
</g>
<g opacity="0.28">
<path d="M993.73 374.016C994.786 375.455 992.548 377.093 991.492 375.654C990.435 374.215 992.674 372.577 993.73 374.016Z" fill="#BAC7FF"/>
</g>
<g opacity="0.92">
<path d="M994.764 435.061C995.362 435.872 994.099 436.802 993.494 435.99C992.895 435.179 994.158 434.249 994.764 435.061Z" fill="#BAC7FF"/>
</g>
<g opacity="0.75">
<path d="M977.523 432.279C978.069 433.024 976.91 433.873 976.363 433.127C975.816 432.382 976.976 431.534 977.523 432.279Z" fill="#BAC7FF"/>
</g>
</g>
<g style="mix-blend-mode:screen" opacity="0.49">
<g opacity="0.91">
<path d="M241.838 315.111C241.52 314.971 241.742 314.476 242.059 314.624C242.377 314.764 242.155 315.259 241.838 315.111Z" fill="#BAC7FF"/>
</g>
<g opacity="0.12">
<path d="M257.262 314.381C256.87 314.248 257.077 313.635 257.469 313.768C257.86 313.901 257.653 314.513 257.262 314.381Z" fill="#BAC7FF"/>
</g>
<g opacity="0.19">
<path d="M271.903 313.355C271.504 313.281 271.622 312.661 272.021 312.742C272.42 312.816 272.302 313.436 271.903 313.355Z" fill="#BAC7FF"/>
</g>
<g opacity="0.15">
<path d="M285.739 303.6C285.399 303.423 285.68 302.899 286.02 303.076C286.359 303.253 286.079 303.777 285.739 303.6Z" fill="#BAC7FF"/>
</g>
<path d="M300.04 284.674C299.737 284.526 299.966 284.054 300.277 284.201C300.58 284.349 300.343 284.821 300.04 284.674Z" fill="#BAC7FF"/>
<g opacity="0.93">
<path d="M282.895 276.454C282.503 276.498 282.43 275.893 282.821 275.849C283.213 275.804 283.286 276.409 282.895 276.454Z" fill="#BAC7FF"/>
</g>
<g opacity="0.64">
<path d="M255.459 290.237C255.105 289.972 255.519 289.418 255.873 289.684C256.228 289.949 255.814 290.503 255.459 290.237Z" fill="#BAC7FF"/>
</g>
<g opacity="0.94">
<path d="M244.039 299.136C243.862 298.819 244.349 298.546 244.527 298.863C244.704 299.18 244.216 299.453 244.039 299.136Z" fill="#BAC7FF"/>
</g>
<path d="M228.423 265.415C228.083 265.614 227.765 265.083 228.112 264.884C228.452 264.684 228.77 265.216 228.423 265.415Z" fill="#BAC7FF"/>
<path d="M243.936 248.215C243.596 248.237 243.566 247.706 243.906 247.691C244.246 247.669 244.275 248.2 243.936 248.215Z" fill="#BAC7FF"/>
<g opacity="0.51">
<path d="M277.923 232.528C277.613 232.734 277.296 232.255 277.606 232.048C277.916 231.841 278.234 232.321 277.923 232.528Z" fill="#BAC7FF"/>
</g>
<g opacity="0.9">
<path d="M302.995 223.806C302.67 224.138 302.16 223.636 302.485 223.304C302.81 222.972 303.32 223.474 302.995 223.806Z" fill="#BAC7FF"/>
</g>
<g opacity="0.31">
<path d="M317.636 254.723C317.252 254.605 317.429 254.007 317.821 254.125C318.205 254.243 318.028 254.841 317.636 254.723Z" fill="#BAC7FF"/>
</g>
<g opacity="0.62">
<path d="M316.979 270.418C316.595 270.196 316.935 269.599 317.326 269.82C317.71 270.041 317.37 270.639 316.979 270.418Z" fill="#BAC7FF"/>
</g>
<path d="M317.518 288.562C317.178 288.429 317.385 287.905 317.725 288.038C318.065 288.171 317.858 288.695 317.518 288.562Z" fill="#BAC7FF"/>
<path d="M319.564 298.988C319.284 298.804 319.572 298.361 319.86 298.553C320.141 298.738 319.852 299.18 319.564 298.988Z" fill="#BAC7FF"/>
<path d="M331.11 289.093C330.756 288.938 331 288.385 331.354 288.54C331.709 288.695 331.465 289.248 331.11 289.093Z" fill="#BAC7FF"/>
<g opacity="0.53">
<path d="M335.868 265.703C335.469 265.629 335.587 265.002 335.986 265.083C336.385 265.157 336.267 265.784 335.868 265.703Z" fill="#BAC7FF"/>
</g>
<g opacity="0.58">
<path d="M336.385 252.022C336.023 251.971 336.111 251.41 336.473 251.469C336.835 251.521 336.747 252.081 336.385 252.022Z" fill="#BAC7FF"/>
</g>
<g opacity="0.64">
<path d="M318.996 246.075C318.53 246.023 318.611 245.3 319.077 245.352C319.542 245.404 319.461 246.127 318.996 246.075Z" fill="#BAC7FF"/>
</g>
<g opacity="0.38">
<path d="M291.272 256.796C290.792 257.505 289.684 256.76 290.164 256.044C290.644 255.335 291.752 256.081 291.272 256.796Z" fill="#BAC7FF"/>
</g>
<g opacity="0.41">
<path d="M291.213 250.849C290.518 251.484 289.536 250.407 290.23 249.772C290.925 249.137 291.907 250.215 291.213 250.849Z" fill="#BAC7FF"/>
</g>
<path d="M312.126 233.184C311.535 233.015 311.793 232.092 312.392 232.262C312.982 232.432 312.724 233.354 312.126 233.184Z" fill="#BAC7FF"/>
<g opacity="0.91">
<path d="M305.728 224.758C305.322 224.964 304.997 224.33 305.403 224.123C305.81 223.917 306.135 224.551 305.728 224.758Z" fill="#BAC7FF"/>
</g>
<path d="M284.675 205.89C284.335 205.831 284.431 205.3 284.771 205.366C285.111 205.425 285.015 205.957 284.675 205.89Z" fill="#BAC7FF"/>
<g opacity="0.43">
<path d="M289.499 237.457C288.952 237.626 288.679 236.77 289.233 236.601C289.78 236.431 290.053 237.287 289.499 237.457Z" fill="#BAC7FF"/>
</g>
<path d="M258.038 272.749C257.661 272.528 258.008 271.938 258.385 272.159C258.761 272.388 258.414 272.971 258.038 272.749Z" fill="#BAC7FF"/>
<path d="M244.445 266.544C244.238 266.876 243.721 266.559 243.928 266.227C244.135 265.895 244.652 266.212 244.445 266.544Z" fill="#BAC7FF"/>
<g opacity="0.95">
<path d="M252.97 277.228C252.63 276.933 253.088 276.402 253.428 276.697C253.768 276.992 253.31 277.524 252.97 277.228Z" fill="#BAC7FF"/>
</g>
<g opacity="0.77">
<path d="M252.076 286.895C251.81 286.548 252.349 286.127 252.623 286.474C252.889 286.821 252.349 287.241 252.076 286.895Z" fill="#BAC7FF"/>
</g>
<g opacity="0.14">
<path d="M280.228 308.647C279.844 308.5 280.073 307.909 280.457 308.057C280.841 308.205 280.612 308.795 280.228 308.647Z" fill="#BAC7FF"/>
</g>
<path d="M290.718 349.563C290.385 349.511 290.459 348.994 290.799 349.046C291.132 349.098 291.058 349.614 290.718 349.563Z" fill="#BAC7FF"/>
<g opacity="0.32">
<path d="M300.831 313.539C300.506 313.362 300.779 312.853 301.104 313.03C301.429 313.207 301.156 313.716 300.831 313.539Z" fill="#BAC7FF"/>
</g>
<g opacity="0.99">
<path d="M275.619 337.683C275.264 337.653 275.308 337.107 275.663 337.129C276.018 337.159 275.973 337.705 275.619 337.683Z" fill="#BAC7FF"/>
</g>
<path d="M254.987 341.033C254.647 340.981 254.728 340.457 255.068 340.509C255.408 340.56 255.326 341.084 254.987 341.033Z" fill="#BAC7FF"/>
<path d="M231.053 306.994C230.75 306.817 231.03 306.345 231.333 306.522C231.636 306.699 231.355 307.171 231.053 306.994Z" fill="#BAC7FF"/>
<g opacity="0.98">
<path d="M211.107 300.929C210.782 300.826 210.938 300.324 211.263 300.427C211.588 300.531 211.433 301.032 211.107 300.929Z" fill="#BAC7FF"/>
</g>
<g opacity="0.42">
<path d="M234.761 293.093C234.532 292.731 235.101 292.37 235.33 292.739C235.559 293.1 234.99 293.462 234.761 293.093Z" fill="#BAC7FF"/>
</g>
<g opacity="0.86">
<path d="M245.007 277.523C244.852 277.11 245.487 276.867 245.649 277.28C245.805 277.693 245.169 277.937 245.007 277.523Z" fill="#BAC7FF"/>
</g>
<g opacity="0.76">
<path d="M217.246 279.08C216.847 278.933 217.069 278.313 217.475 278.453C217.874 278.601 217.652 279.221 217.246 279.08Z" fill="#BAC7FF"/>
</g>
<g opacity="0.71">
<path d="M241.816 278.852C241.823 278.409 242.51 278.424 242.502 278.866C242.495 279.309 241.808 279.294 241.816 278.852Z" fill="#BAC7FF"/>
</g>
<g opacity="0.7">
<path d="M270.389 248.672C269.716 248.665 269.731 247.625 270.403 247.632C271.076 247.639 271.061 248.68 270.389 248.672Z" fill="#BAC7FF"/>
</g>
<g opacity="0.68">
<path d="M272.849 243.374C272.302 243.397 272.272 242.555 272.819 242.533C273.366 242.511 273.395 243.352 272.849 243.374Z" fill="#BAC7FF"/>
</g>
<g opacity="0.64">
<path d="M286.766 270.137C286.382 270.403 285.968 269.798 286.352 269.532C286.736 269.267 287.15 269.872 286.766 270.137Z" fill="#BAC7FF"/>
</g>
<g opacity="0.68">
<path d="M309.511 258.184C309.067 258.125 309.156 257.438 309.599 257.497C310.042 257.557 309.954 258.243 309.511 258.184Z" fill="#BAC7FF"/>
</g>
<path d="M368.001 247.846C367.669 247.794 367.743 247.278 368.083 247.33C368.415 247.381 368.341 247.898 368.001 247.846Z" fill="#BAC7FF"/>
<path d="M373.46 260.139C373.128 260.087 373.202 259.571 373.542 259.623C373.874 259.674 373.8 260.191 373.46 260.139Z" fill="#BAC7FF"/>
<path d="M346.04 250.702C345.7 250.65 345.781 250.126 346.121 250.178C346.461 250.229 346.379 250.753 346.04 250.702Z" fill="#BAC7FF"/>
<g opacity="0.63">
<path d="M312.628 206.746C312.288 206.709 312.347 206.185 312.687 206.222C313.027 206.259 312.968 206.783 312.628 206.746Z" fill="#BAC7FF"/>
</g>
<g opacity="0.68">
<path d="M314.829 212.081C314.489 212.044 314.549 211.528 314.881 211.557C315.221 211.594 315.162 212.111 314.829 212.081Z" fill="#BAC7FF"/>
</g>
<g opacity="0.76">
<path d="M304.554 219.556C304.317 219.858 303.837 219.489 304.081 219.187C304.317 218.884 304.798 219.253 304.554 219.556Z" fill="#BAC7FF"/>
</g>
<g opacity="0.88">
<path d="M293.562 212.745C293.614 213.136 293.008 213.217 292.956 212.826C292.904 212.435 293.51 212.354 293.562 212.745Z" fill="#BAC7FF"/>
</g>
<path d="M282.636 207.964C282.289 207.942 282.319 207.396 282.673 207.418C283.021 207.44 282.991 207.986 282.636 207.964Z" fill="#BAC7FF"/>
<path d="M274.651 214.944C274.311 215.01 274.2 214.479 274.548 214.413C274.887 214.346 274.998 214.878 274.651 214.944Z" fill="#BAC7FF"/>
</g>
<g style="mix-blend-mode:screen" opacity="0.63">
<g opacity="0.55">
<path d="M254.529 367.471C253.819 367.36 253.989 366.261 254.699 366.371C255.408 366.482 255.238 367.582 254.529 367.471Z" fill="#BAC7FF"/>
</g>
<g opacity="0.7">
<path d="M254.204 373.994C253.192 373.839 253.435 372.275 254.447 372.429C255.459 372.584 255.216 374.149 254.204 373.994Z" fill="#BAC7FF"/>
</g>
<g opacity="0.98">
<path d="M244.829 408.962C243.958 408.829 244.165 407.479 245.036 407.611C245.908 407.744 245.701 409.095 244.829 408.962Z" fill="#BAC7FF"/>
</g>
<g opacity="0.98">
<path d="M291.272 412.887C290.356 412.747 290.578 411.33 291.494 411.471C292.41 411.611 292.188 413.028 291.272 412.887Z" fill="#BAC7FF"/>
</g>
<g opacity="0.84">
<path d="M302.943 397.466C301.673 397.274 301.976 395.296 303.246 395.496C304.517 395.687 304.214 397.665 302.943 397.466Z" fill="#BAC7FF"/>
</g>
<g opacity="0.14">
<path d="M251.958 339.321C251.293 339.217 251.448 338.184 252.12 338.288C252.785 338.391 252.63 339.424 251.958 339.321Z" fill="#BAC7FF"/>
</g>
<path d="M220.755 402.085C220.053 401.974 220.223 400.889 220.925 401C221.627 401.111 221.457 402.195 220.755 402.085Z" fill="#BAC7FF"/>
<g opacity="0.86">
<path d="M217.438 366.194C216.507 366.054 216.729 364.6 217.66 364.748C218.591 364.888 218.369 366.342 217.438 366.194Z" fill="#BAC7FF"/>
</g>
<g opacity="0.73">
<path d="M280.561 351.37C279.77 351.252 279.955 350.02 280.753 350.138C281.543 350.264 281.358 351.488 280.561 351.37Z" fill="#BAC7FF"/>
</g>
<g opacity="0.77">
<path d="M314.327 353.532C313.559 353.414 313.743 352.219 314.512 352.337C315.28 352.455 315.095 353.65 314.327 353.532Z" fill="#BAC7FF"/>
</g>
<g opacity="0.85">
<path d="M331.93 342.582C331.155 342.464 331.339 341.261 332.115 341.379C332.891 341.498 332.706 342.7 331.93 342.582Z" fill="#BAC7FF"/>
</g>
<g opacity="0.88">
<path d="M341.282 321.235C340.544 321.125 340.721 319.974 341.46 320.084C342.198 320.195 342.021 321.346 341.282 321.235Z" fill="#BAC7FF"/>
</g>
<g opacity="0.9">
<path d="M397.66 333.337C396.774 333.196 396.981 331.817 397.875 331.957C398.761 332.097 398.554 333.477 397.66 333.337Z" fill="#BAC7FF"/>
</g>
<g opacity="0.36">
<path d="M344.636 342.213C343.75 342.08 343.964 340.708 344.85 340.841C345.737 340.974 345.523 342.346 344.636 342.213Z" fill="#BAC7FF"/>
</g>
<g opacity="0.9">
<path d="M280.14 289.293C279.201 289.145 279.423 287.691 280.361 287.839C281.299 287.987 281.078 289.44 280.14 289.293Z" fill="#BAC7FF"/>
</g>
<g opacity="0.26">
<path d="M255.999 322.719C255.164 322.593 255.363 321.294 256.198 321.42C257.033 321.545 256.833 322.844 255.999 322.719Z" fill="#BAC7FF"/>
</g>
<g opacity="0.58">
<path d="M273.358 306.611C272.686 306.507 272.841 305.46 273.521 305.563C274.193 305.666 274.038 306.714 273.358 306.611Z" fill="#BAC7FF"/>
</g>
<g opacity="0.88">
<path d="M275.493 280.999C274.636 280.866 274.843 279.538 275.7 279.671C276.557 279.804 276.35 281.132 275.493 280.999Z" fill="#BAC7FF"/>
</g>
<g opacity="0.75">
<path d="M265.853 244.983C265.033 244.858 265.225 243.581 266.052 243.707C266.872 243.832 266.68 245.109 265.853 244.983Z" fill="#BAC7FF"/>
</g>
<g opacity="0.28">
<path d="M340.485 237.154C339.761 237.043 339.938 235.922 340.654 236.033C341.378 236.143 341.201 237.265 340.485 237.154Z" fill="#BAC7FF"/>
</g>
<g opacity="0.43">
<path d="M378.971 255.121C377.952 254.967 378.188 253.38 379.215 253.535C380.234 253.69 379.998 255.276 378.971 255.121Z" fill="#BAC7FF"/>
</g>
<g opacity="0.51">
<path d="M426.463 268.676C425.089 268.462 425.414 266.33 426.788 266.544C428.162 266.758 427.837 268.89 426.463 268.676Z" fill="#BAC7FF"/>
</g>
<g opacity="0.37">
<path d="M407.005 266.433C406.096 266.293 406.311 264.884 407.219 265.024C408.128 265.164 407.914 266.573 407.005 266.433Z" fill="#BAC7FF"/>
</g>
<g opacity="0.49">
<path d="M337.426 198.888C336.436 198.733 336.673 197.198 337.663 197.353C338.653 197.508 338.416 199.043 337.426 198.888Z" fill="#BAC7FF"/>
</g>
<g opacity="0.76">
<path d="M349.718 195.309C349.076 195.213 349.231 194.217 349.873 194.313C350.516 194.409 350.361 195.405 349.718 195.309Z" fill="#BAC7FF"/>
</g>
<g opacity="0.58">
<path d="M352.74 171.011C351.912 170.885 352.112 169.601 352.939 169.727C353.766 169.852 353.567 171.136 352.74 171.011Z" fill="#BAC7FF"/>
</g>
<g opacity="0.79">
<path d="M384.031 170.42C383.337 170.317 383.499 169.24 384.194 169.343C384.888 169.446 384.726 170.524 384.031 170.42Z" fill="#BAC7FF"/>
</g>
<g opacity="0.68">
<path d="M299.324 186.034C298.733 185.945 298.873 185.023 299.464 185.112C300.055 185.2 299.915 186.122 299.324 186.034Z" fill="#BAC7FF"/>
</g>
<g opacity="0.91">
<path d="M271.275 191.612C270.477 191.487 270.662 190.247 271.467 190.365C272.265 190.491 272.08 191.73 271.275 191.612Z" fill="#BAC7FF"/>
</g>
<g opacity="0.64">
<path d="M297.61 169.764C297.012 169.675 297.152 168.738 297.75 168.834C298.349 168.922 298.208 169.86 297.61 169.764Z" fill="#BAC7FF"/>
</g>
<g opacity="0.93">
<path d="M320.613 194.025C319.978 193.929 320.126 192.933 320.768 193.036C321.404 193.132 321.256 194.129 320.613 194.025Z" fill="#BAC7FF"/>
</g>
<g opacity="0.92">
<path d="M227.861 243.153C227.1 243.035 227.278 241.847 228.046 241.965C228.807 242.083 228.63 243.271 227.861 243.153Z" fill="#BAC7FF"/>
</g>
<g opacity="0.37">
<path d="M175.472 276.786C174.726 276.667 174.903 275.509 175.65 275.627C176.396 275.745 176.218 276.904 175.472 276.786Z" fill="#BAC7FF"/>
</g>
<g opacity="0.92">
<path d="M141.167 265.039C140.546 264.943 140.694 263.976 141.315 264.072C141.935 264.168 141.787 265.135 141.167 265.039Z" fill="#BAC7FF"/>
</g>
<g opacity="0.4">
<path d="M187.986 256.619C187.1 256.487 187.314 255.114 188.2 255.247C189.087 255.38 188.872 256.752 187.986 256.619Z" fill="#BAC7FF"/>
</g>
<g opacity="0.28">
<path d="M188.392 269.798C187.698 269.695 187.86 268.61 188.555 268.721C189.249 268.824 189.087 269.909 188.392 269.798Z" fill="#BAC7FF"/>
</g>
<path d="M113.495 336.148C112.837 336.045 112.993 335.026 113.65 335.13C114.307 335.233 114.152 336.251 113.495 336.148Z" fill="#BAC7FF"/>
<g opacity="0.86">
<path d="M169.023 331.566C168.462 331.477 168.595 330.607 169.156 330.688C169.718 330.776 169.585 331.647 169.023 331.566Z" fill="#BAC7FF"/>
</g>
<g opacity="0.41">
<path d="M211.706 323.36C210.901 323.235 211.093 321.981 211.898 322.106C212.703 322.232 212.511 323.486 211.706 323.36Z" fill="#BAC7FF"/>
</g>
<g opacity="0.73">
<path d="M264.102 225.282C263.231 225.149 263.437 223.791 264.309 223.924C265.181 224.057 264.974 225.414 264.102 225.282Z" fill="#BAC7FF"/>
</g>
<g opacity="0.52">
<path d="M322.172 268.514C321.478 268.403 321.64 267.326 322.342 267.429C323.036 267.54 322.874 268.617 322.172 268.514Z" fill="#BAC7FF"/>
</g>
<g opacity="0.74">
<path d="M368.821 300.442C368.001 300.317 368.193 299.04 369.021 299.166C369.841 299.291 369.649 300.567 368.821 300.442Z" fill="#BAC7FF"/>
</g>
<g opacity="0.72">
<path d="M339.938 340.952C339.155 340.834 339.34 339.609 340.123 339.734C340.906 339.852 340.721 341.077 339.938 340.952Z" fill="#BAC7FF"/>
</g>
<g opacity="0.63">
<path d="M387.4 376.03C386.683 375.92 386.853 374.813 387.57 374.923C388.286 375.034 388.116 376.141 387.4 376.03Z" fill="#BAC7FF"/>
</g>
<path d="M409.332 387.482C408.593 387.372 408.771 386.22 409.509 386.331C410.248 386.442 410.071 387.593 409.332 387.482Z" fill="#BAC7FF"/>
<g opacity="0.34">
<path d="M382.908 257.217C381.756 257.04 382.029 255.254 383.182 255.431C384.334 255.608 384.061 257.394 382.908 257.217Z" fill="#BAC7FF"/>
</g>
<g opacity="0.94">
<path d="M407.995 231.886C407.086 231.745 407.3 230.336 408.209 230.476C409.118 230.617 408.904 232.026 407.995 231.886Z" fill="#BAC7FF"/>
</g>
<g opacity="0.98">
<path d="M423.434 220.116C422.621 219.991 422.813 218.729 423.626 218.855C424.439 218.98 424.246 220.242 423.434 220.116Z" fill="#BAC7FF"/>
</g>
<g opacity="0.98">
<path d="M425.074 206.576C424.313 206.458 424.49 205.278 425.258 205.396C426.019 205.514 425.842 206.695 425.074 206.576Z" fill="#BAC7FF"/>
</g>
<g opacity="0.38">
<path d="M323.982 260.036C323.324 259.932 323.48 258.914 324.137 259.017C324.794 259.121 324.639 260.139 323.982 260.036Z" fill="#BAC7FF"/>
</g>
<g opacity="0.71">
<path d="M316.757 264.138C315.679 263.976 315.937 262.301 317.016 262.463C318.094 262.626 317.836 264.301 316.757 264.138Z" fill="#BAC7FF"/>
</g>
<g opacity="0.23">
<path d="M357.667 222.345C356.64 222.19 356.884 220.589 357.911 220.751C358.937 220.906 358.694 222.507 357.667 222.345Z" fill="#BAC7FF"/>
</g>
<g opacity="0.37">
<path d="M411.083 259.106C410.034 258.944 410.285 257.313 411.334 257.475C412.383 257.638 412.132 259.268 411.083 259.106Z" fill="#BAC7FF"/>
</g>
<g opacity="0.62">
<path d="M430.717 282.895C429.816 282.755 430.03 281.36 430.932 281.501C431.833 281.641 431.619 283.035 430.717 282.895Z" fill="#BAC7FF"/>
</g>
<g opacity="0.95">
<path d="M462.282 284.128C461.507 284.009 461.691 282.807 462.467 282.925C463.243 283.043 463.058 284.246 462.282 284.128Z" fill="#BAC7FF"/>
</g>
<g opacity="0.34">
<path d="M385.287 263.755C384.497 263.637 384.681 262.404 385.479 262.522C386.27 262.648 386.085 263.873 385.287 263.755Z" fill="#BAC7FF"/>
</g>
<g opacity="0.61">
<path d="M344.621 282.091C343.794 281.966 343.993 280.682 344.821 280.807C345.648 280.933 345.449 282.216 344.621 282.091Z" fill="#BAC7FF"/>
</g>
<g opacity="0.56">
<path d="M343.801 304.832C343.018 304.714 343.203 303.497 343.986 303.615C344.769 303.733 344.584 304.95 343.801 304.832Z" fill="#BAC7FF"/>
</g>
<g opacity="0.76">
<path d="M294.426 330.149C293.798 330.053 293.946 329.086 294.574 329.182C295.202 329.278 295.054 330.245 294.426 330.149Z" fill="#BAC7FF"/>
</g>
<g opacity="0.91">
<path d="M294.057 323.132C293.067 322.977 293.303 321.442 294.293 321.59C295.283 321.745 295.047 323.279 294.057 323.132Z" fill="#BAC7FF"/>
</g>
<g opacity="0.34">
<path d="M356.64 230.565C355.377 230.373 355.68 228.41 356.943 228.602C358.206 228.794 357.903 230.757 356.64 230.565Z" fill="#BAC7FF"/>
</g>
<g opacity="0.62">
<path d="M335.905 138.574C335.351 138.485 335.483 137.629 336.038 137.71C336.592 137.799 336.459 138.655 335.905 138.574Z" fill="#BAC7FF"/>
</g>
<g opacity="0.28">
<path d="M322.756 133.349C321.426 133.143 321.744 131.077 323.073 131.283C324.403 131.49 324.085 133.556 322.756 133.349Z" fill="#BAC7FF"/>
</g>
<g opacity="0.92">
<path d="M289.58 101.311C288.827 101.193 289.004 100.027 289.758 100.138C290.511 100.256 290.334 101.421 289.58 101.311Z" fill="#BAC7FF"/>
</g>
<g opacity="0.75">
<path d="M300.269 93.5999C299.582 93.4966 299.745 92.4193 300.432 92.5299C301.119 92.6332 300.956 93.7105 300.269 93.5999Z" fill="#BAC7FF"/>
</g>
</g>
<path opacity="0.4" d="M0 0H1439V550C880.427 416.658 566.056 389.246 0 550V0Z" fill="url(#paint0_linear_50_1536)"/>
</g>
<defs>
<linearGradient id="paint0_linear_50_1536" x1="719.5" y1="0" x2="719.5" y2="702.306" gradientUnits="userSpaceOnUse">
<stop stop-color="#222222" stop-opacity="0"/>
<stop offset="1" stop-color="#7877C6"/>
</linearGradient>
<clipPath id="clip0_50_1536">
<rect width="1439" height="550" fill="white"/>
</clipPath>
</defs>
</svg>
