<svg width="131" height="40" viewBox="0 0 131 40" fill="none" xmlns="http://www.w3.org/2000/svg">
<path d="M20.1022 39.5518C31.2043 39.5518 40.2043 30.6978 40.2043 19.7759C40.2043 8.85397 31.2043 0 20.1022 0C9.00005 0 0 8.85397 0 19.7759C0 30.6978 9.00005 39.5518 20.1022 39.5518Z" fill="#FF0000"/>
<path d="M20.1022 31.6415C26.7454 31.6415 32.1308 26.3291 32.1308 19.7759C32.1308 13.2228 26.7454 7.9104 20.1022 7.9104C13.4589 7.9104 8.07349 13.2228 8.07349 19.7759C8.07349 26.3291 13.4589 31.6415 20.1022 31.6415Z" fill="#FF0000" stroke="white" stroke-miterlimit="18.18"/>
<path d="M15.9838 25.5401L26.5298 19.7723L15.9838 14.0045V25.5401Z" fill="white"/>
<path d="M61.6297 15.8207C60.64 20.5989 59.9802 26.2035 59.6539 28.6723H59.324C58.9941 26.1999 58.3343 20.5989 57.3483 15.9839L54.8758 4.44824H47.4621V35.593H52.0771V9.88616L52.5701 12.3586L57.3483 35.593H61.9632L66.5782 12.3586L66.9081 9.88616V35.4262H71.5231V4.44824H63.9426C64.1058 4.44824 61.637 15.8171 61.637 15.8171L61.6297 15.8207Z" fill="white"/>
<path d="M84.0412 30.8149C83.5482 31.6379 82.7216 32.2977 81.7355 32.2977C80.7494 32.2977 80.2528 31.4747 80.2528 29.4953V12.8517H74.978V29.6585C74.978 33.7768 76.4607 35.7562 79.593 35.7562C81.7355 35.7562 83.3814 34.7665 84.701 32.6239H84.8641L85.3572 35.4263H89.4755V12.8517H84.0376V30.8149H84.0412Z" fill="white"/>
<path d="M99.532 21.7518C97.8825 20.5989 96.7297 19.776 96.7297 17.9633C96.7297 16.6437 97.3895 15.9876 98.7054 15.9876C100.188 15.9876 100.681 16.9773 100.681 20.4358L105.129 20.2726C105.459 14.8347 103.647 12.5291 98.7018 12.5291C94.2536 12.5291 91.9443 14.5048 91.9443 18.46C91.9443 22.0853 93.7569 23.7348 96.7224 26.0405C99.358 28.0162 100.841 29.0059 100.841 30.6554C100.841 31.8083 100.018 32.6312 98.6982 32.6312C97.0487 32.6312 96.2258 31.1485 96.3925 28.676H91.9443C91.2845 33.4542 93.2639 36.0897 98.3719 36.0897C102.987 36.0897 105.293 34.114 105.293 29.992C105.622 26.2036 103.643 24.7172 99.5247 21.7518H99.532Z" fill="white"/>
<path d="M108.428 12.8517H113.536V35.4263H108.428V12.8517Z" fill="white"/>
<path d="M111.064 3.78845C109.088 3.78845 108.262 4.44825 108.262 6.92069C108.262 9.39313 109.251 10.0529 111.064 10.0529C113.04 10.0529 113.866 9.39313 113.866 6.92069C113.866 4.61502 113.043 3.78845 111.064 3.78845Z" fill="white"/>
<path d="M130.51 27.3528L125.895 27.1896C125.895 31.1448 125.402 32.4644 123.919 32.4644C122.437 32.4644 122.107 30.9817 122.107 26.3667V21.9185C122.107 17.3035 122.437 15.9875 123.919 15.9875C125.402 15.9875 125.732 17.3071 125.732 21.5886L130.347 21.2587C130.677 17.7965 130.184 15.3277 128.864 14.0081C127.874 13.0184 126.229 12.5254 124.086 12.5254C118.978 12.5254 116.835 15.161 116.835 22.7414V25.8737C116.835 33.6173 118.648 36.0897 123.923 36.0897C126.065 36.0897 127.711 35.5967 128.701 34.607C130.021 33.1242 130.514 30.8185 130.514 27.3564L130.51 27.3528Z" fill="white"/>
</svg>
