<svg width="186" height="191" viewBox="0 0 186 191" fill="none" xmlns="http://www.w3.org/2000/svg">
<path d="M0.731313 9.53926C0.289339 8.83857 0.499072 7.91228 1.19974 7.4703L12.618 0.267935C13.3186 -0.174044 14.2449 0.0356841 14.6869 0.736366C15.1289 1.43704 14.9192 2.36334 14.2185 2.80531L4.06896 9.20742L10.4711 19.357C10.913 20.0576 10.7033 20.9839 10.0026 21.4259C9.30195 21.8679 8.37566 21.6582 7.93368 20.9575L0.731313 9.53926ZM182.395 190.956L180.882 184.974L183.79 184.238L185.303 190.22L182.395 190.956ZM180.882 184.974C158.79 97.6352 89.5341 30.0954 1.66878 10.202L2.33124 7.27603C91.2978 27.4188 161.422 95.805 183.79 184.238L180.882 184.974Z" fill="#7F61FF"/>
<defs>
<linearGradient id="paint0_linear_343_59" x1="114.08" y1="2.00136" x2="48.4284" y2="75.6364" gradientUnits="userSpaceOnUse">
<stop stop-color="#505050" stop-opacity="0.79"/>
<stop offset="0.985643" stop-color="#828282" stop-opacity="0.4"/>
</linearGradient>
</defs>
</svg>