<svg width="191" height="186" viewBox="0 0 191 186" fill="none" xmlns="http://www.w3.org/2000/svg">
<path d="M9.53926 184.856C8.83857 185.298 7.91228 185.089 7.4703 184.388L0.267935 172.97C-0.174044 172.269 0.0356841 171.343 0.736366 170.901C1.43704 170.459 2.36334 170.669 2.80531 171.369L9.20742 181.519L19.357 175.117C20.0576 174.675 20.9839 174.884 21.4259 175.585C21.8679 176.286 21.6582 177.212 20.9575 177.654L9.53926 184.856ZM190.956 3.19322L184.974 4.70623L184.238 1.79783L190.22 0.284819L190.956 3.19322ZM184.974 4.70623C97.6352 26.7977 30.0954 96.0536 10.202 183.919L7.27603 183.257C27.4188 94.29 95.805 24.1661 184.238 1.79783L184.974 4.70623Z" fill="#7F61FF"/>
<defs>
<linearGradient id="paint0_linear_343_56" x1="2.00136" y1="71.5081" x2="75.6364" y2="137.159" gradientUnits="userSpaceOnUse">
<stop stop-color="#505050" stop-opacity="0.79"/>
<stop offset="0.985643" stop-color="#828282" stop-opacity="0.4"/>
</linearGradient>
</defs>
</svg>