<svg width="192" height="186" viewBox="0 0 192 186" fill="none" xmlns="http://www.w3.org/2000/svg">
<path d="M182.048 184.856C182.749 185.298 183.675 185.089 184.117 184.388L191.32 172.97C191.762 172.269 191.552 171.343 190.851 170.901C190.151 170.459 189.224 170.669 188.782 171.369L182.38 181.519L172.231 175.117C171.53 174.675 170.604 174.884 170.162 175.585C169.72 176.286 169.93 177.212 170.63 177.654L182.048 184.856ZM0.632167 3.19321L6.61386 4.70622L7.34951 1.79782L1.36782 0.284809L0.632167 3.19321ZM6.61386 4.70622C93.9525 26.7977 161.492 96.0536 181.386 183.919L184.312 183.257C164.169 94.29 95.7827 24.1661 7.34951 1.79782L6.61386 4.70622Z" fill="url(#paint0_linear_343_55)"/>
<defs>
<linearGradient id="paint0_linear_343_55" x1="189.586" y1="71.5081" x2="115.951" y2="137.159" gradientUnits="userSpaceOnUse">
<stop stop-color="#505050" stop-opacity="0.79"/>
<stop offset="0.985643" stop-color="#828282" stop-opacity="0.4"/>
</linearGradient>
</defs>
</svg>
