<svg width="186" height="191" viewBox="0 0 186 191" fill="none" xmlns="http://www.w3.org/2000/svg">
<path d="M184.856 9.53928C185.298 8.83859 185.089 7.9123 184.388 7.47032L172.97 0.267954C172.269 -0.174025 171.343 0.0357031 170.901 0.736385C170.459 1.43706 170.669 2.36336 171.369 2.80533L181.519 9.20744L175.117 19.357C174.675 20.0576 174.884 20.984 175.585 21.4259C176.286 21.8679 177.212 21.6582 177.654 20.9575L184.856 9.53928ZM3.19322 190.956L4.70623 184.974L1.79782 184.238L0.284814 190.22L3.19322 190.956ZM4.70623 184.974C26.7977 97.6352 96.0536 30.0954 183.919 10.202L183.257 7.27605C94.29 27.4188 24.1661 95.805 1.79782 184.238L4.70623 184.974Z" fill="#FFFFFF"/>
<defs>
<linearGradient id="paint0_linear_343_26" x1="71.5081" y1="2.00137" x2="137.159" y2="75.6364" gradientUnits="userSpaceOnUse">
<stop stop-color="#505050" stop-opacity="0.79"/>
<stop offset="0.985643" stop-color="#828282" stop-opacity="0.4"/>
</linearGradient>
</defs>
</svg>