<svg
              width="259"
              height="23"
              viewBox="0 0 259 23"
              fill="none"
              xmlns="http://www.w3.org/2000/svg"
            >
              <path
                d="M0.665332 10.5306C0.0719305 11.1087 0.0595211 12.0583 0.637606 12.6517L10.0579 22.3216C10.636 22.915 11.5857 22.9274 12.1791 22.3494C12.7725 21.7713 12.7849 20.8216 12.2068 20.2282L3.83318 11.6327L12.4286 3.25911C13.022 2.68103 13.0345 1.73136 12.4564 1.13797C11.8783 0.544574 10.9286 0.532159 10.3352 1.11024L0.665332 10.5306ZM124.084 13.2048L124.064 14.7047L124.072 14.7048L124.08 14.7048L124.084 13.2048ZM258.882 12.0605L124.088 11.7048L124.08 14.7048L258.874 15.0605L258.882 12.0605ZM124.103 11.705L1.73165 10.1051L1.69242 13.1049L124.064 14.7047L124.103 11.705Z"
                fill="#FFFFFF"
              />
              <defs>
                <linearGradient
                  id="paint0_linear_68_67"
                  x1="76.1925"
                  y1="12.8848"
                  x2="76.1993"
                  y2="12.0458"
                  gradientUnits="userSpaceOnUse"
                >
                  <stop stop-color="#505050" stop-opacity="0.79" />
                  <stop
                    offset="0.985643"
                    stop-color="#828282"
                    stop-opacity="0.4"
                  />
                </linearGradient>
              </defs>
            </svg>