<svg width="262" height="23" viewBox="0 0 262 23" fill="none" xmlns="http://www.w3.org/2000/svg">
<path d="M261.449 10.8293C262.032 11.4181 262.027 12.3679 261.438 12.9506L251.842 22.4459C251.253 23.0285 250.303 23.0235 249.721 22.4346C249.138 21.8458 249.143 20.896 249.732 20.3133L258.262 11.8731L249.822 3.34302C249.239 2.75414 249.244 1.80441 249.833 1.22173C250.422 0.639053 251.371 0.644077 251.954 1.23296L261.449 10.8293ZM136.941 11.2312L136.933 12.7312L136.925 12.7311L136.941 11.2312ZM0.317019 8.33541L136.956 9.73125L136.925 12.7311L0.286374 11.3352L0.317019 8.33541ZM136.949 9.73119L260.391 10.3843L260.375 13.3843L136.933 12.7311L136.949 9.73119Z" fill="#7F61FF"/>
<defs>
<linearGradient id="paint0_linear_68_65" x1="184.455" y1="21.4883" x2="185.264" y2="5.01172" gradientUnits="userSpaceOnUse">
<stop stop-color="#505050" stop-opacity="0.79"/>
<stop offset="0.985643" stop-color="#828282" stop-opacity="0.4"/>
</linearGradient>
</defs>
</svg>